<svg width="100" height="100" viewBox="0 0 100 100" fill="none" xmlns="http://www.w3.org/2000/svg">
<path d="M51.7 79L71.5 59.3C72.5 58.3 72.5 56.8 71.5 55.8C70.5 54.8 69 54.8 68 55.8L52.4 71.4V47.1C52.4 45.7 51.3 44.6 49.9 44.6C48.5 44.6 47.4 45.7 47.4 47.1V71.4L32 55.8C31.1 54.9 29.5 54.8 28.6 55.8C27.6 56.8 27.6 58.4 28.6 59.4L48.3 79C48.8 79.5 49.4 79.7 50 79.7C50.6 79.7 51.3 79.5 51.7 79Z" fill="white"/>
<path d="M47.5 38.8998C47.5 40.2806 48.6193 41.3998 50 41.3998C51.3807 41.3998 52.5 40.2806 52.5 38.8998C52.5 37.5191 51.3807 36.3998 50 36.3998C48.6193 36.3998 47.5 37.5191 47.5 38.8998Z" fill="white"/>
<path d="M47.5 30.7997C47.5 32.1805 48.6193 33.2997 50 33.2997C51.3807 33.2997 52.5 32.1805 52.5 30.7997C52.5 29.419 51.3807 28.2997 50 28.2997C48.6193 28.2997 47.5 29.419 47.5 30.7997Z" fill="white"/>
<path d="M47.5 22.7001C47.5 24.0808 48.6193 25.2001 50 25.2001C51.3807 25.2001 52.5 24.0808 52.5 22.7001C52.5 21.3194 51.3807 20.2001 50 20.2001C48.6193 20.2001 47.5 21.3194 47.5 22.7001Z" fill="white"/>
</svg>
